<?xml version="1.0" encoding="utf-8"?>
<svg
	version="1.1"
	id="Layer_1"
	xmlns="http://www.w3.org/2000/svg"
	xml:space="preserve"
	x="0px"
    y="0px"
    viewBox="0 0 512 512"
	style="enable-background:new 0 0 512 512;">
	<style type="text/css">
		.st0{fill:#76C2AF;}
		.st1{fill:#65A192;}
		.st2{fill:#FFFFFF;}
	</style>
	<g id="XMLID_1_">
		<path
			id="XMLID_3_"
			class="st0"
			d="M256,0c141,0,256,115,256,256S397,512,256,512S0,397,0,256S115,0,256,0" />
			<path
				id="XMLID_4_"
				class="st1"
				d="M341.1,190.6c-5.5,0-11,2.4-14.2,7.9c-3.9,7.9-1.6,17.3,5.5,22.1l81.1,49.6c0,0.8,0,0,0,0.8 c0,0.8,0,0.8,0,0.8l-81.1,49.6c-7.9,4.7-10.2,15-5.5,22.1c3.2,5.5,7.9,7.9,13.4,7.9c2.4,0,5.5-0.8,8.7-2.4l85.1-52.8l1.6-1.6 c6.3-6.3,9.5-15,9.5-23.6c0-8.7-3.2-17.3-9.5-23.6l-1.6-1.6L348.9,193C346.6,191.4,343.4,190.6,341.1,190.6" />
			<path
				id="XMLID_5_"
				class="st1"
				d="M172.5,191.4c-3.2,0-5.5,0.8-8.7,2.4l-85.1,52.8l-0.8,1.6c-6.3,6.3-9.5,15-9.5,23.6 s3.2,17.3,9.5,23.6l1.6,0.8l85.1,52.8c2.4,1.6,4.7,2.4,7.9,2.4c5.5,0,11-2.4,14.2-7.1c3.9-7.9,1.6-17.3-5.5-22.1L100,272.5 c0-0.8,0,0,0-0.8s0-0.8,0-0.8l81.1-49.6c7.9-4.7,10.2-15,5.5-22.1C183.5,193.8,178,191.4,172.5,191.4" />
			<path
				id="XMLID_6_"
				class="st1"
				d="M308.8,119.7c-7.1,0-13.4,3.9-15.8,10.2L189,402.5c-2.4,7.9,1.6,17.3,9.5,20.5 c1.6,0.8,3.9,0.8,5.5,0.8c6.3,0,12.6-3.9,15-10.2l104-271.8c2.4-7.9-1.6-17.3-9.5-20.5C311.9,120.5,310.4,119.7,308.8,119.7" />
			<path
				id="XMLID_7_"
				class="st2"
				d="M340.3,336.3c-5.5,0-10.2-2.4-13.4-7.9c-4.7-7.1-2.4-17.3,5.5-22.1l80.3-50.4v-0.8l-81.1-49.6 c-7.1-4.7-9.5-14.2-5.5-22.1c4.7-7.1,14.2-9.5,22.1-5.5l85.1,52.8l1.6,1.6c12.6,12.6,12.6,34.7,0,48l-1.6,1.6l-84.3,52.8 C345.8,335.6,342.6,336.3,340.3,336.3z" />
			<path
				id="XMLID_8_"
				class="st2"
				d="M171.7,336.3c-3.2,0-5.5-0.8-7.9-2.4l-85.1-52.8l-0.8-1.6c-12.6-12.6-12.6-34.7,0-48l1.6-1.6 l84.3-52.8c7.1-4.7,17.3-2.4,22.1,5.5c4.7,7.1,2.4,17.3-5.5,22.1l-81.1,49.6v1.6l81.1,49.6c7.1,4.7,9.5,14.2,5.5,22.1 C183.5,334,177.2,336.3,171.7,336.3z" />
			<path
				id="XMLID_9_"
				class="st2"
				d="M204,408c-1.6,0-3.9,0-5.5-0.8c-7.9-3.2-11.8-12.6-9.5-20.5l104-272.5 c3.2-7.9,12.6-11.8,20.5-9.5c7.9,3.2,11.8,12.6,9.5,20.5L219,397.8C216.6,404.1,210.3,408,204,408z" />
	</g>
</svg>
